<?xml version="1.0" encoding="iso-8859-1"?>
<!-- Generator: Adobe Illustrator 19.0.0, SVG Export Plug-In . SVG Version: 6.00 Build 0)  -->
<svg version="1.1" id="Capa_1" xmlns="http://www.w3.org/2000/svg" xmlns:xlink="http://www.w3.org/1999/xlink" x="0px" y="0px"
	 viewBox="0 0 496 496" style="enable-background:new 0 0 496 496;" xml:space="preserve">
<g>
	<g>
		<g>
			<path d="M424.504,411.608c-11.152-35.688-42.24-62.424-79.2-68.112L304,337.136v-1.464c31.264-14.048,53.496-44.56,55.704-80.448
				C378.08,251.616,392,235.416,392,216c0-19.312-13.768-35.472-32-39.192V176h48v-16h-46.032l29.488-132.704
				c0.368-1.592,0.544-3.232,0.544-4.88C392,10.056,381.944,0,369.584,0H126.416C114.056,0,104,10.056,104,22.416
				c0,1.648,0.176,3.288,0.536,4.864L134.032,160H88v16h48v0.808c-18.232,3.72-32,19.872-32,39.192
				c0,19.416,13.92,35.616,32.296,39.224c2.208,35.888,24.44,66.4,55.704,80.448v1.464l-41.304,6.352
				c-36.96,5.688-68.048,32.424-79.2,68.112L45.12,496h181.936H240h16h12.944H450.88L424.504,411.608z M136,238.52
				c-9.288-3.304-16-12.104-16-22.52s6.712-19.216,16-22.528V238.52z M376,216c0,10.416-6.712,19.216-16,22.528V193.48
				C369.288,196.784,376,205.584,376,216z M120.152,23.8c-0.104-0.448-0.152-0.912-0.152-1.384c0-3.536,2.88-6.416,6.416-6.416
				h243.168c3.536,0,6.416,2.88,6.416,6.416c0,0.472-0.048,0.936-0.152,1.392L352.696,128H143.304L120.152,23.8z M146.864,144
				h202.28l-3.552,16H150.416L146.864,144z M152,249.376V176h192v73.376C344,292.728,308.728,328,265.376,328h-34.752
				C187.272,328,152,292.728,152,249.376z M137.76,480l6.088-30.432l-15.688-3.144L121.44,480H66.88l19.88-63.624
				c6.312-20.192,20.328-36.8,38.24-47.032L148,400h31.056l40,80H137.76z M239.992,480h-3.048l-48-96H156l-16.056-21.4
				c4.28-1.416,8.656-2.592,13.176-3.288l41.64-6.408c5.712,12.2,19.672,27.744,45.232,30.52V480z M248,368
				c-30.224,0-38.608-20.92-40-25.176v-1.672c7.264,1.792,14.816,2.848,22.624,2.848h34.752c7.808,0,15.36-1.056,22.624-2.848v1.672
				C286.632,346.984,278.232,368,248,368z M259.056,480H256v-96.576c25.568-2.784,39.52-18.32,45.232-30.52l41.64,6.408
				c4.528,0.696,8.896,1.872,13.176,3.288L340,384h-32.944L259.056,480z M367.848,446.432l-15.688,3.144L358.24,480h-81.296l40-80
				H348l22.992-30.656c17.912,10.232,31.936,26.84,38.24,47.032L429.12,480h-54.56L367.848,446.432z"/>
			<rect x="184" y="192" width="16" height="16"/>
			<rect x="296" y="192" width="16" height="16"/>
			<path d="M219.576,255.16c10.576-5.32,22.664,6.408,22.768,6.496l5.656,5.656l5.656-5.656c0.12-0.12,12.216-11.792,22.768-6.496
				c2.736,1.368,5.232,2.736,7.568,4.016c7.552,4.144,14.832,8.136,23.624,8.136c4.776,0,10-1.176,15.96-4.16l-7.16-14.312
				c-9.416,4.712-13.904,2.248-24.736-3.696c-2.504-1.376-5.176-2.84-8.112-4.304c-14.416-7.208-28.16-0.36-35.576,4.864
				c-7.416-5.232-21.176-12.08-35.576-4.864c-2.928,1.464-5.6,2.928-8.112,4.304c-10.832,5.944-15.32,8.408-24.736,3.696
				l-7.16,14.312c16.928,8.456,27.936,2.416,39.584-3.984C214.344,257.896,216.84,256.52,219.576,255.16z"/>
			<path d="M295.76,273.944l-15.512-3.92C279.976,271.088,273.2,296,248,296s-31.976-24.912-32.248-25.976l-15.512,3.92
				C203.528,287.104,217.744,312,248,312S292.472,287.104,295.76,273.944z"/>
			<rect x="160" y="96" width="16" height="16"/>
			<rect x="192" y="96" width="96" height="16"/>
		</g>
	</g>
</g>
<g>
</g>
<g>
</g>
<g>
</g>
<g>
</g>
<g>
</g>
<g>
</g>
<g>
</g>
<g>
</g>
<g>
</g>
<g>
</g>
<g>
</g>
<g>
</g>
<g>
</g>
<g>
</g>
<g>
</g>
</svg>
